<svg width="417" height="417" viewBox="0 0 417 417" fill="none" xmlns="http://www.w3.org/2000/svg">
<g filter="url(#filter0_d_4_16)">
<circle cx="208.5" cy="204.5" r="204.5" fill="#003434"/>
<rect x="72.6889" y="101" width="28" height="187.245" rx="14" transform="rotate(9.5 72.6889 101)" fill="#FF7F11"/>
<rect x="196" y="141.018" width="28" height="174" rx="14" transform="rotate(90 196 141.018)" fill="#FF7F11"/>
<rect x="142" y="221.018" width="28" height="132" rx="14" transform="rotate(90 142 221.018)" fill="#FF7F11"/>
<path d="M187.381 231.995L177.71 290.018H149.94L166.668 189.654H193.131L190.256 207.362H191.366C194.546 201.481 199.033 196.842 204.827 193.444C210.664 190.046 217.307 188.347 224.756 188.347C231.725 188.347 237.541 189.872 242.202 192.921C246.906 195.971 250.217 200.305 252.134 205.924C254.094 211.544 254.42 218.274 253.114 226.115L242.398 290.018H214.562L224.429 231.08C225.431 224.938 224.647 220.147 222.077 216.705C219.55 213.221 215.477 211.478 209.858 211.478C206.112 211.478 202.67 212.284 199.534 213.896C196.398 215.508 193.762 217.86 191.628 220.953C189.537 224.002 188.121 227.683 187.381 231.995ZM264.728 290.018L286.944 156.2H340.523C350.368 156.2 358.34 157.659 364.438 160.578C370.58 163.496 374.871 167.547 377.31 172.731C379.75 177.871 380.403 183.795 379.271 190.504C378.356 195.731 376.504 200.305 373.717 204.225C370.972 208.146 367.575 211.369 363.523 213.896C359.472 216.422 355.073 218.208 350.325 219.254L350.063 220.561C355.116 220.778 359.668 222.216 363.719 224.873C367.771 227.487 370.798 231.189 372.802 235.981C374.806 240.773 375.263 246.457 374.174 253.035C372.998 260.135 370.188 266.473 365.745 272.049C361.302 277.581 355.378 281.959 347.972 285.183C340.611 288.406 331.92 290.018 321.901 290.018H264.728ZM296.941 266.887H320.006C327.847 266.887 333.837 265.363 337.975 262.313C342.113 259.264 344.596 255.235 345.424 250.225C345.99 246.523 345.62 243.256 344.313 240.424C343.05 237.593 340.894 235.371 337.844 233.759C334.839 232.148 331.027 231.342 326.41 231.342H302.756L296.941 266.887ZM306.023 212.197H326.998C330.831 212.197 334.381 211.522 337.648 210.171C340.959 208.777 343.682 206.817 345.816 204.291C347.994 201.721 349.366 198.693 349.933 195.208C350.717 190.329 349.628 186.431 346.665 183.512C343.747 180.55 339.173 179.069 332.944 179.069H311.512L306.023 212.197Z" fill="#FF7F11"/>
<rect x="137.904" y="101.018" width="28" height="187.245" rx="14" transform="rotate(9.5 137.904 101.018)" fill="#FF7F11"/>
</g>
<defs>
<filter id="filter0_d_4_16" x="0" y="0" width="417" height="417" filterUnits="userSpaceOnUse" color-interpolation-filters="sRGB">
<feFlood flood-opacity="0" result="BackgroundImageFix"/>
<feColorMatrix in="SourceAlpha" type="matrix" values="0 0 0 0 0 0 0 0 0 0 0 0 0 0 0 0 0 0 127 0" result="hardAlpha"/>
<feOffset dy="4"/>
<feGaussianBlur stdDeviation="2"/>
<feComposite in2="hardAlpha" operator="out"/>
<feColorMatrix type="matrix" values="0 0 0 0 0 0 0 0 0 0 0 0 0 0 0 0 0 0 0.25 0"/>
<feBlend mode="normal" in2="BackgroundImageFix" result="effect1_dropShadow_4_16"/>
<feBlend mode="normal" in="SourceGraphic" in2="effect1_dropShadow_4_16" result="shape"/>
</filter>
</defs>
</svg>
